<svg width="191" height="188" viewBox="0 0 191 188" fill="none" xmlns="http://www.w3.org/2000/svg">
<path d="M90.5592 2.80774C93.623 1.06667 97.377 1.06666 100.441 2.80774L173.146 44.1249C176.274 45.9021 178.205 49.222 178.205 52.8191V135.181C178.205 138.778 176.274 142.098 173.146 143.875L100.441 185.192C97.377 186.933 93.623 186.933 90.5592 185.192L17.8538 143.875C14.7265 142.098 12.7946 138.778 12.7946 135.181V52.8191C12.7946 49.2221 14.7265 45.9021 17.8538 44.1249L90.5592 2.80774Z" fill="white"/>
<path d="M143.986 124.281C143.586 121.471 141.526 118.431 138.336 117.771C138.176 116.541 137.886 115.321 137.576 114.151C135.696 107.161 131.876 98.1806 124.276 93.4406C127.386 92.0906 130.236 90.3906 132.606 88.4206C133.926 87.3206 135.106 85.5906 136.116 83.2706C136.146 83.2706 136.166 83.2706 136.196 83.2706V83.1006C136.506 82.3706 136.806 81.5906 137.086 80.7406L136.126 80.4206V80.2706C136.116 80.2706 136.116 80.2706 136.106 80.2706C135.616 80.2706 134.396 79.8206 133.196 79.2106C136.006 76.4206 137.846 71.4406 138.086 70.7706L136.676 70.2706H138.176C138.176 68.0506 136.036 67.5306 134.756 67.2206C134.226 67.0906 133.676 66.9606 133.376 66.7806C132.416 66.2106 131.516 65.6706 130.766 64.9906C129.876 64.1806 129.166 63.1206 128.586 62.1906C128.136 61.4606 127.716 60.7106 127.316 59.9506C129.426 57.6206 130.866 54.8806 132.246 52.2206C132.636 51.4706 133.076 50.6306 133.276 49.6406C133.446 48.8106 133.416 48.0206 133.396 47.3206C133.336 45.4206 132.466 41.9506 130.736 40.2006L130.576 40.3606C129.716 39.9206 128.646 39.8706 127.556 40.2806C127.536 40.2906 127.516 40.3006 127.496 40.3006C127.296 40.3606 127.086 40.4306 126.886 40.5006C126.186 40.7406 125.176 41.1106 123.916 41.5606L122.766 41.9706C121.696 42.3506 120.616 42.8506 119.546 43.4606C118.556 44.0206 115.766 45.2506 111.196 44.5006C110.736 44.4306 110.396 44.4206 110.126 44.4106C109.666 44.4006 109.366 44.3906 108.296 43.8906L108.186 43.8406C106.256 42.9506 103.846 41.8506 100.456 41.8406C100.446 41.8406 100.446 41.8406 100.436 41.8406C95.2655 41.8406 89.9155 43.1006 85.3055 44.2806L84.8255 44.4106C84.2955 44.5606 83.7855 44.7006 83.3855 44.6706C82.8255 44.6406 82.1955 44.3606 81.5255 44.0506L81.4255 44.0106C78.4655 42.6706 75.3055 41.9706 72.2555 41.3006C71.5855 41.1506 70.9155 41.0006 70.2455 40.8406L70.2355 40.8106C70.2155 40.8206 70.1955 40.8206 70.1755 40.8306C70.1155 40.8206 70.0555 40.8006 70.0055 40.7906L69.9855 40.8906C66.3355 42.0106 66.1055 43.2306 66.0155 43.7006C65.7955 44.8906 66.1055 46.0006 66.3555 46.8906L67.5555 51.1506C67.8955 52.3506 68.2355 53.5906 68.7855 54.8006C69.4655 56.3006 71.1655 57.7406 73.2155 59.2906C69.9755 63.4606 64.9455 67.7706 63.1355 69.2606H62.1455C62.1455 69.8006 62.1855 74.6006 63.7255 76.6306C64.1655 77.2106 64.6855 77.6806 65.1255 78.0706C65.5055 78.4006 65.8855 78.7206 66.2755 79.0306C65.3655 79.5106 64.3955 79.8806 63.3955 80.1106L64.0655 83.0306C64.1455 83.0106 64.2155 82.9906 64.2955 82.9706C65.2055 85.7206 67.2955 87.7506 68.8055 89.0306C71.0955 90.9806 73.6855 92.6006 76.4555 93.8406L75.4855 94.6306C74.9755 95.0406 74.3955 95.5106 73.8955 96.0706C72.8855 97.1906 72.2155 98.6506 71.8755 100.301C71.4455 100.281 71.0255 100.261 70.5955 100.241C69.7255 100.221 68.8155 100.231 67.9055 100.271L67.7455 100.051C67.6555 100.121 67.5455 100.211 67.4555 100.291C66.2555 100.371 65.0255 100.531 63.8155 100.871L63.8555 101.011C61.0755 101.751 58.0255 102.641 55.4755 104.511C54.4455 105.271 53.5455 106.141 52.7355 106.981C49.8355 109.951 46.4155 116.511 46.1555 121.171C45.8055 127.161 46.1155 128.151 46.4055 129.111C46.4355 129.201 46.4655 129.291 46.4855 129.391C46.5555 129.651 46.6055 129.901 46.6555 130.161C46.7555 130.651 46.8655 131.201 47.0655 131.741C47.4355 132.751 47.9855 133.651 48.4755 134.451L48.5655 134.601C50.4155 137.611 52.5155 141.021 56.0355 142.611C57.0755 143.081 57.9555 143.521 58.7755 143.931C60.5455 144.821 62.2155 145.661 64.7055 146.391C65.5755 146.651 66.4455 146.841 67.3155 147.001C67.3955 147.091 67.4755 147.181 67.5555 147.271L67.7655 147.071C70.2955 147.471 72.8355 147.521 75.3355 147.521C75.6955 147.521 76.0555 147.521 76.4155 147.521H77.8355C77.8955 147.551 77.9555 147.581 78.0055 147.611L78.0455 147.521L87.8055 147.491L87.8155 147.501L87.8255 147.491L96.7655 147.471C96.8255 147.501 96.8855 147.541 96.9355 147.571L96.9955 147.471L107.656 147.441C108.006 147.441 108.366 147.441 108.726 147.441C108.746 147.461 108.776 147.481 108.806 147.491L108.846 147.441C112.956 147.421 117.336 147.351 121.636 146.601C121.926 146.661 122.206 146.711 122.456 146.741L122.496 146.431C125.016 145.941 127.496 145.201 129.866 144.101C135.036 141.681 139.376 137.581 142.096 132.561C143.726 129.521 144.356 126.811 143.986 124.281ZM130.316 49.0506C130.196 49.6206 129.886 50.2206 129.566 50.8406C128.466 52.9506 127.326 55.0906 125.876 56.9506C125.076 55.0306 124.436 53.0406 123.966 50.9906L124.026 50.9706C123.946 50.6606 124.126 50.1406 124.576 49.4306C125.826 47.4306 127.526 45.6806 129.486 44.3706C129.536 44.3406 129.596 44.3006 129.666 44.2506C130.066 45.3106 130.336 46.5206 130.366 47.4106C130.396 47.9906 130.416 48.5706 130.316 49.0506ZM100.436 44.8606C103.176 44.8606 105.166 45.7806 106.916 46.5806L107.026 46.6306C107.676 46.9306 108.166 47.1106 108.586 47.2206L105.036 50.6406C104.216 51.4306 103.186 52.4206 102.656 53.7806C102.266 54.7706 102.216 55.7906 102.176 56.6006C101.946 61.0506 101.896 65.5606 102.036 70.0106L102.046 70.4506C102.086 71.6806 102.116 72.8406 102.046 73.9906C102.016 74.4806 101.956 74.9606 101.886 75.4406C100.456 75.2306 99.0055 75.1106 97.5555 75.0906C97.5355 74.7406 97.5255 74.4006 97.5255 74.1006C97.5055 71.5906 97.7755 69.0006 98.0255 66.4906C98.3855 62.9706 98.7555 59.3406 98.3955 55.7006C98.3255 55.0206 98.2255 54.2406 97.8155 53.4906C97.3855 52.7006 96.7455 52.1706 96.2255 51.7406C94.9455 50.6906 93.4355 49.3106 91.9655 47.9706C91.3255 47.3906 90.6855 46.8006 90.0455 46.2306C93.4155 45.4706 96.9955 44.8606 100.416 44.8606C100.426 44.8606 100.426 44.8606 100.436 44.8606ZM98.7955 80.0406C98.5355 79.3906 98.2955 78.7606 98.0855 78.1306C99.1155 78.1706 100.146 78.2606 101.166 78.4006C100.756 79.6306 100.226 80.8206 99.5755 81.9406C99.3055 81.3106 99.0555 80.6706 98.7955 80.0406ZM71.5055 53.5706C71.0555 52.5706 70.7355 51.4406 70.4255 50.3506L69.2255 46.0906C69.0755 45.5706 68.9255 45.0306 68.9255 44.5706C69.1755 44.4206 69.6155 44.2206 70.0955 44.0406C72.9755 47.9706 75.9255 52.5006 76.1255 53.6706C76.0655 54.2406 75.8455 54.8306 75.5455 55.5306C75.3655 55.9506 75.1455 56.3806 74.8955 56.8206C73.5655 55.8106 71.9155 54.4906 71.5055 53.5706ZM67.1255 81.9806C68.4355 81.3606 69.6555 80.5506 70.7255 79.5706L69.2255 77.9206L69.4155 77.6706C68.6255 77.0906 67.8455 76.4706 67.1055 75.8206C66.7755 75.5306 66.3955 75.1906 66.1155 74.8306C65.7255 74.3106 65.4155 72.8906 65.2655 71.3906C68.0455 69.0906 75.9655 62.2106 78.3055 56.7106C78.6755 55.8506 79.0255 54.9106 79.1155 53.8706C79.2555 52.3206 76.9855 48.6006 74.4055 44.9006C76.4055 45.3906 78.3355 45.9406 80.1755 46.7706L80.2755 46.8106C81.1255 47.1906 82.0855 47.6306 83.2155 47.6906C84.1055 47.7406 84.9055 47.5206 85.6155 47.3206L86.0455 47.2106C86.1955 47.1706 86.3455 47.1306 86.4955 47.1006C87.5855 48.0406 88.7855 49.1306 89.9555 50.2006C91.4455 51.5606 92.9855 52.9706 94.3255 54.0706C94.6755 54.3606 95.0355 54.6506 95.1855 54.9306C95.3255 55.1906 95.3755 55.6206 95.4155 56.0106C95.6755 58.6606 95.5155 61.3006 95.2555 64.0406C95.2555 64.0406 95.2555 64.0406 95.2455 64.0306C93.8255 62.5506 91.5955 61.9806 89.2655 62.5006C87.4955 62.9006 85.9855 63.8306 84.7055 64.6606C82.6755 65.9906 80.6755 67.4906 78.7655 69.1006C77.4755 70.1906 76.1555 71.4006 75.1855 72.9106C74.0155 74.7206 73.5555 76.7206 73.8655 78.5406C74.3955 81.6006 77.2355 84.0706 80.6155 84.4106C80.8955 84.4406 81.1855 84.4506 81.4755 84.4506C83.9555 84.4506 86.5655 83.4006 88.7455 81.5006C91.2955 79.2806 93.0055 76.3306 94.5255 73.4506C94.5255 73.6706 94.5155 73.8906 94.5155 74.1106C94.5255 75.0406 94.5655 76.2606 94.8155 77.4806C95.0855 78.7806 95.5555 79.9706 96.0055 81.1206C96.4655 82.2806 96.9555 83.5106 97.6055 84.7006C96.6755 85.7906 95.6255 86.7706 94.4755 87.5906L96.2155 90.0306C97.3655 89.2106 98.4155 88.2706 99.3755 87.2406C99.5355 87.4206 99.6955 87.5906 99.8655 87.7606C100.846 88.6906 101.986 89.3906 102.996 90.0006L104.556 87.4406C103.636 86.8806 102.676 86.3006 101.936 85.5906C101.696 85.3606 101.486 85.1206 101.276 84.8606C103.446 81.7206 104.776 78.0006 105.016 74.1506C105.076 73.2606 105.066 72.3806 105.046 71.5106C106.026 73.7306 107.216 75.8106 108.596 77.7006L109.786 79.3206C110.126 79.7906 110.486 80.2706 110.916 80.7306C111.416 81.2606 111.956 81.6906 112.486 82.1106C114.186 83.4506 116.196 84.8506 118.866 84.8506C119.076 84.8506 119.286 84.8406 119.506 84.8206C122.076 84.6106 124.366 83.2106 125.646 81.0606C126.366 79.8606 126.746 78.5806 126.756 77.3506C126.776 74.3106 124.606 71.9106 122.706 70.1706C120.336 67.9906 117.786 65.9706 115.116 64.1706C109.686 60.5106 106.496 61.9706 104.936 63.4206C104.956 61.1806 105.026 58.9406 105.136 56.7206C105.166 56.0906 105.206 55.3806 105.416 54.8406C105.706 54.1006 106.406 53.4306 107.076 52.7806L112.386 47.6606C112.936 47.7006 113.456 47.7306 113.956 47.7306C117.416 47.7306 119.756 46.7506 120.976 46.0606C121.896 45.5406 122.816 45.1106 123.726 44.7906L124.686 44.4506C123.676 45.4806 122.766 46.6106 121.996 47.8306C121.496 48.6206 120.906 49.7606 120.986 51.0306L120.866 51.0606C121.826 55.5606 123.546 59.8406 125.966 63.7506C126.656 64.8606 127.506 66.1406 128.686 67.2006C129.656 68.0806 130.736 68.7206 131.786 69.3406C132.476 69.7506 133.276 69.9406 133.986 70.1106C134.266 70.1806 134.676 70.2806 134.966 70.3806C133.926 73.0106 131.866 76.9206 129.936 77.9106L130.116 78.2606L128.556 78.9706C128.846 79.6106 129.266 80.1806 129.756 80.6206C130.126 80.9506 130.506 81.1706 130.826 81.3506C131.226 81.5806 132.116 82.0606 133.116 82.4806C132.356 84.1206 131.506 85.3706 130.646 86.0806C125.676 90.2106 118.346 93.0706 111.036 93.7306C107.126 94.0806 103.076 94.0006 99.1655 93.9306L92.7355 93.8006C90.3255 93.7506 87.8355 93.7006 85.4555 93.3606C80.0855 92.5906 74.8455 90.2306 70.7155 86.7206C68.7755 85.0806 67.6255 83.5606 67.1255 81.9806ZM84.6455 69.3606C84.6555 69.4306 84.6855 69.5006 84.6955 69.5706C84.6955 69.6406 84.6855 69.7106 84.6855 69.7806C84.8255 71.4606 86.4855 73.1606 87.5755 73.6906C88.0455 73.9206 88.4955 74.0306 88.9355 74.0306C89.1755 74.0306 89.4155 73.9906 89.6455 73.9206C89.6855 73.9106 89.7255 73.8806 89.7655 73.8706C90.2855 73.7506 90.7055 73.4806 90.9955 73.1506C91.7255 72.3306 91.8955 70.8306 90.7755 69.3206C90.2255 68.4406 89.3755 67.6406 88.4955 67.2606C87.7755 66.9506 87.0655 66.9206 86.4255 67.1406C87.4655 66.4606 88.6755 65.7206 89.9255 65.4406C90.9255 65.2106 92.2755 65.2806 93.0755 66.1106C94.2555 67.3406 93.8655 68.3806 92.5455 70.8106C92.4055 71.0706 92.2655 71.3406 92.1255 71.6006C90.6755 74.3806 89.0755 77.2606 86.7755 79.2706C84.9655 80.8506 82.8255 81.6506 80.9155 81.4506C78.8855 81.2506 77.1255 79.7806 76.8255 78.0506C76.6355 76.9806 76.9555 75.7306 77.7155 74.5506C78.4255 73.4406 79.4255 72.4906 80.7055 71.4106C82.0355 70.2906 83.4155 69.2206 84.8155 68.2406C84.6555 68.5606 84.5955 68.9306 84.6455 69.3606ZM110.446 73.5106C110.906 73.8306 111.426 74.0006 111.976 74.0006C112.376 74.0006 112.786 73.9106 113.196 73.7406C114.546 73.1606 115.856 71.5606 116.056 70.2306C116.146 69.6106 116.066 68.9206 115.776 68.3406C117.486 69.6106 119.136 70.9706 120.696 72.4106C122.226 73.8206 123.786 75.5106 123.776 77.3706C123.776 78.0606 123.536 78.8206 123.096 79.5606C122.326 80.8506 120.866 81.7306 119.286 81.8606C117.566 82.0006 116.176 81.2006 114.366 79.7806C113.906 79.4206 113.476 79.0706 113.116 78.7006C112.806 78.3806 112.526 77.9906 112.226 77.5806L111.036 75.9606C109.686 74.1206 108.526 72.0806 107.596 69.8806C107.246 69.0506 106.176 66.5306 106.836 65.8206C107.406 65.2106 108.116 64.9006 108.986 64.9006C110.196 64.9006 111.696 65.5006 113.466 66.6906C113.606 66.7806 113.736 66.8806 113.876 66.9806C113.366 66.9306 112.826 67.0306 112.266 67.3006C111.166 67.8306 109.506 69.5306 109.376 71.2106C109.296 72.1406 109.686 72.9806 110.446 73.5106ZM76.1255 98.1006C76.4755 97.7106 76.9155 97.3606 77.3755 96.9806L79.2355 95.4806C79.4955 95.4306 80.1255 95.4806 80.5155 95.6206L80.5955 95.3906C82.0655 95.8306 83.5655 96.1606 85.0755 96.3706C87.6455 96.7406 90.2255 96.7906 92.7255 96.8406L99.1655 96.9706C100.846 97.0006 102.546 97.0406 104.266 97.0406C106.626 97.0406 108.996 96.9806 111.356 96.7606C114.626 96.4606 117.896 95.7506 121.006 94.7006L120.876 94.9806C128.876 98.7706 132.806 107.921 134.686 114.931C135.356 117.431 135.726 119.491 135.326 121.441C134.896 123.551 133.626 125.161 132.626 126.141C130.206 128.521 126.726 129.821 123.336 129.611C121.456 129.491 119.676 128.961 117.976 128.131L118.276 105.221L115.276 105.181L115.006 126.351C112.636 124.671 110.386 122.501 108.156 120.191C108.096 116.921 108.116 113.131 108.136 109.461C108.146 107.671 108.156 105.921 108.156 104.291H105.156C105.156 105.921 105.146 107.661 105.136 109.451C105.126 111.991 105.116 114.581 105.126 117.041C100.236 111.991 94.6855 106.751 87.7255 103.691C83.9655 102.041 79.7355 101.001 74.9055 100.551C75.1355 99.5606 75.5555 98.7206 76.1255 98.1006ZM95.5955 133.381C96.1255 136.021 97.6255 138.651 99.9155 140.991C100.926 142.021 102.606 143.271 104.316 144.471L97.5955 144.491C94.5355 142.451 91.8655 138.341 90.5955 135.171C89.3655 132.091 87.9855 128.021 88.2955 123.891C88.3955 122.531 88.6655 121.191 88.9655 119.761C89.6255 116.561 90.4455 112.591 92.9055 110.111C95.3255 111.841 97.5755 113.801 99.6855 115.841C98.2555 117.391 97.1355 119.361 96.4155 121.631C95.7155 123.831 95.3655 126.301 95.3155 129.411C95.2955 130.591 95.3155 131.991 95.5955 133.381ZM78.1455 128.221C78.0955 126.591 78.0655 125.491 78.2055 124.071C78.6555 119.321 79.1255 114.411 81.2155 110.151C81.8155 108.921 83.2455 107.061 84.4755 105.611C85.1655 105.861 85.8455 106.121 86.5055 106.411C87.8455 107.001 89.1355 107.691 90.3855 108.441C87.6155 111.521 86.7255 115.731 86.0255 119.161C85.7255 120.611 85.4255 122.111 85.3055 123.661C84.9555 128.401 86.4655 132.891 87.8155 136.271C88.8855 138.941 90.7455 142.051 93.0555 144.491L88.7655 144.501C84.0255 140.981 78.3055 133.001 78.1455 128.221ZM60.1155 141.281C59.2555 140.851 58.3455 140.391 57.2655 139.901C54.5855 138.691 52.8255 135.821 51.1155 133.051L51.0255 132.901C50.5655 132.161 50.1455 131.461 49.8755 130.741C49.7555 130.401 49.6755 130.011 49.5855 129.591C49.5255 129.271 49.4555 128.961 49.3755 128.651C49.3355 128.511 49.3055 128.391 49.2655 128.261C49.0655 127.621 48.8255 126.821 49.1455 121.361C49.3455 117.871 52.1355 111.911 54.8855 109.091C55.6055 108.351 56.3955 107.581 57.2555 106.951C59.1155 105.591 61.3855 104.831 63.6755 104.191C61.1755 107.221 58.7755 110.981 58.0855 113.551C57.7755 114.701 57.5755 115.871 57.4155 116.971C56.9755 119.861 56.7155 122.511 56.6055 125.071C56.5355 126.811 56.5255 128.681 56.9655 130.541C57.2655 131.791 57.7455 132.941 58.1755 133.891C59.5555 136.941 61.7155 140.191 63.9055 143.011C62.5055 142.481 61.3755 141.911 60.1155 141.281ZM68.8055 144.211C66.0955 141.141 62.7055 136.631 60.9055 132.641C60.5355 131.811 60.1155 130.831 59.8755 129.821C59.5155 128.321 59.5255 126.701 59.5955 125.181C59.6955 122.731 59.9555 120.191 60.3755 117.401C60.5255 116.391 60.7055 115.321 60.9755 114.321C61.7755 111.371 65.7955 105.871 68.6155 103.261C69.2555 103.241 69.8955 103.241 70.5255 103.261C71.3355 103.281 72.1255 103.311 72.8955 103.361C69.4955 107.391 67.0755 112.161 65.8655 117.321C63.9055 125.661 65.4455 134.501 69.9955 140.981C70.7555 142.061 71.5155 142.971 72.3155 143.761C72.5555 144.001 72.8655 144.261 73.1855 144.521C71.7255 144.491 70.2555 144.411 68.8055 144.211ZM78.5655 144.541C77.1955 143.781 75.3055 142.491 74.4155 141.621C73.7455 140.961 73.0955 140.191 72.4455 139.261C68.3855 133.471 67.0055 125.531 68.7755 118.011C70.0455 112.631 72.7455 107.701 76.5955 103.741C78.2655 103.971 79.8555 104.271 81.3655 104.661C80.4055 105.861 79.1655 107.511 78.5155 108.841C76.1855 113.591 75.6655 119.011 75.2055 123.801C75.0555 125.401 75.0755 126.631 75.1355 128.341C75.3055 133.501 79.8955 140.251 84.2355 144.541H78.5655ZM109.636 144.451C109.446 144.321 109.266 144.201 109.056 144.061C106.836 142.571 103.476 140.321 102.056 138.881C100.166 136.961 98.9455 134.851 98.5355 132.781C98.3155 131.671 98.2955 130.471 98.3155 129.451C98.3655 126.641 98.6655 124.441 99.2755 122.531C99.8555 120.721 100.726 119.161 101.826 117.941C102.986 119.121 104.116 120.291 105.206 121.441C106.966 123.291 108.736 125.071 110.566 126.651C109.486 128.121 108.436 129.701 107.736 131.481C106.786 133.911 106.676 136.381 107.426 138.441C108.266 140.751 110.196 142.691 112.856 143.891C113.166 144.031 113.546 144.191 113.966 144.351C112.496 144.421 111.056 144.441 109.636 144.451ZM139.446 131.151C137.036 135.611 133.186 139.251 128.586 141.401C126.386 142.431 124.036 143.111 121.636 143.561C119.256 143.031 115.656 141.881 114.086 141.171C112.196 140.311 110.796 138.951 110.236 137.431C109.736 136.051 109.836 134.331 110.526 132.581C111.086 131.151 111.956 129.841 112.906 128.531C115.996 130.791 119.316 132.361 123.146 132.601C123.446 132.621 123.746 132.631 124.046 132.631C127.986 132.631 131.916 131.041 134.726 128.281C136.586 126.451 137.806 124.291 138.266 122.031C138.336 121.671 138.386 121.311 138.426 120.951C139.856 121.601 140.816 123.231 141.026 124.711C141.286 126.581 140.776 128.691 139.446 131.151Z" fill="#6E2AB1"/>
</svg>
