<svg width="40" height="40" viewBox="0 0 40 40" fill="none" xmlns="http://www.w3.org/2000/svg">
<g id="face_unlock_24px">
<path id="icon/action/face_unlock_24px" fill-rule="evenodd" clip-rule="evenodd" d="M36.6667 20C36.6667 29.2 29.2 36.6667 20 36.6667C10.8 36.6667 3.33337 29.2 3.33337 20C3.33337 10.8 10.8 3.33333 20 3.33333C29.2 3.33333 36.6667 10.8 36.6667 20ZM15 23.75C16.15 23.75 17.0834 22.8167 17.0834 21.6667C17.0834 20.5167 16.15 19.5833 15 19.5833C13.85 19.5833 12.9167 20.5167 12.9167 21.6667C12.9167 22.8167 13.85 23.75 15 23.75ZM22.9167 21.6667C22.9167 20.5167 23.85 19.5833 25 19.5833C26.15 19.5833 27.0834 20.5167 27.0834 21.6667C27.0834 22.8167 26.15 23.75 25 23.75C23.85 23.75 22.9167 22.8167 22.9167 21.6667ZM29.1667 13.3333C24.3334 13.3333 20.1001 10.7333 17.7667 6.86666C18.4834 6.74999 19.2334 6.66666 20.0001 6.66666C24.8334 6.66666 29.0667 9.26666 31.4001 13.1333C30.6834 13.25 29.9334 13.3333 29.1667 13.3333ZM7.36674 15.7833C10.2167 14.1667 12.4167 11.5333 13.4667 8.38333C10.6167 9.99999 8.41674 12.6333 7.36674 15.7833ZM32.7834 16.2667C33.1334 17.45 33.3334 18.7 33.3334 20C33.3334 27.35 27.35 33.3333 20 33.3333C12.65 33.3333 6.66671 27.35 6.66671 20C6.66671 19.9716 6.66865 19.9431 6.67054 19.9154C6.6742 19.8618 6.67769 19.8106 6.66671 19.7667C11 18.1333 14.4834 14.7833 16.2334 10.5167C19.3 14.2667 23.95 16.6667 29.1667 16.6667C30.4167 16.6667 31.6167 16.5167 32.7834 16.2667Z" fill="#4F4F4F"/>
</g>
</svg>
