<svg width="40" height="40" viewBox="0 0 40 40" fill="none" xmlns="http://www.w3.org/2000/svg">
<g id="palette_24px">
<path id="icon/image/palette_24px" fill-rule="evenodd" clip-rule="evenodd" d="M3.33337 20C3.33337 29.1833 10.8167 36.6667 20 36.6667C22.3 36.6667 24.1667 34.8 24.1667 32.5C24.1667 31.4833 23.7834 30.5 23.1 29.7167C22.9667 29.55 22.8834 29.3667 22.8834 29.1667C22.8834 28.7 23.25 28.3333 23.7167 28.3333H26.6667C32.1834 28.3333 36.6667 23.85 36.6667 18.3333C36.6667 10.0667 29.1834 3.33333 20 3.33333C10.8167 3.33333 3.33337 10.8167 3.33337 20ZM6.66671 20C6.66671 12.65 12.65 6.66667 20 6.66667C27.35 6.66667 33.3334 11.9 33.3334 18.3333C33.3334 22.0167 30.35 25 26.6667 25H23.7167C21.4167 25 19.55 26.8667 19.55 29.1667C19.55 30.1667 19.9167 31.15 20.6 31.9167C20.7 32.0333 20.8334 32.2333 20.8334 32.5C20.8334 32.9667 20.4667 33.3333 20 33.3333C12.65 33.3333 6.66671 27.35 6.66671 20ZM10.8334 16.6667C9.45266 16.6667 8.33337 17.786 8.33337 19.1667C8.33337 20.5474 9.45266 21.6667 10.8334 21.6667C12.2141 21.6667 13.3334 20.5474 13.3334 19.1667C13.3334 17.786 12.2141 16.6667 10.8334 16.6667ZM13.3334 12.5C13.3334 11.1193 14.4527 10 15.8334 10C17.2141 10 18.3334 11.1193 18.3334 12.5C18.3334 13.8807 17.2141 15 15.8334 15C14.4527 15 13.3334 13.8807 13.3334 12.5ZM24.1667 10C22.786 10 21.6667 11.1193 21.6667 12.5C21.6667 13.8807 22.786 15 24.1667 15C25.5474 15 26.6667 13.8807 26.6667 12.5C26.6667 11.1193 25.5474 10 24.1667 10ZM26.6667 19.1667C26.6667 17.786 27.786 16.6667 29.1667 16.6667C30.5474 16.6667 31.6667 17.786 31.6667 19.1667C31.6667 20.5474 30.5474 21.6667 29.1667 21.6667C27.786 21.6667 26.6667 20.5474 26.6667 19.1667Z" fill="black" fill-opacity="0.54"/>
</g>
</svg>
