<svg width="40" height="40" viewBox="0 0 40 40" fill="none" xmlns="http://www.w3.org/2000/svg">
<path fill-rule="evenodd" clip-rule="evenodd" d="M3.33337 20C3.33337 10.8 10.8 3.33334 20 3.33334C29.2 3.33334 36.6667 10.8 36.6667 20C36.6667 29.2 29.2 36.6667 20 36.6667C10.8 36.6667 3.33337 29.2 3.33337 20ZM21.6667 26.6667V30H18.3334V26.6667H21.6667ZM20 33.3333C12.65 33.3333 6.66671 27.35 6.66671 20C6.66671 12.65 12.65 6.66667 20 6.66667C27.35 6.66667 33.3334 12.65 33.3334 20C33.3334 27.35 27.35 33.3333 20 33.3333ZM13.3334 16.6667C13.3334 12.9833 16.3167 10 20 10C23.6834 10 26.6667 12.9833 26.6667 16.6667C26.6667 18.8049 25.35 19.9555 24.068 21.0759C22.8517 22.1388 21.6667 23.1744 21.6667 25H18.3334C18.3334 21.9645 19.9036 20.761 21.2841 19.7028C22.3671 18.8727 23.3334 18.132 23.3334 16.6667C23.3334 14.8333 21.8334 13.3333 20 13.3333C18.1667 13.3333 16.6667 14.8333 16.6667 16.6667H13.3334Z" fill="black" fill-opacity="0.54"/>
</svg>
