<svg width="40" height="40" viewBox="0 0 40 40" fill="none" xmlns="http://www.w3.org/2000/svg">
<g id="toys_24px">
<path id="icon/hardware/toys_24px" fill-rule="evenodd" clip-rule="evenodd" d="M20 38.3333H18.3333V27.3833C16.55 29 14.2 30 11.6666 30C6.24996 30 1.66663 25.4167 1.66663 20V18.3333H12.6166C11 16.55 9.99996 14.2 9.99996 11.6667C9.99996 6.25 14.5833 1.66667 20 1.66667H21.6666V12.6167C23.45 11 25.8 10 28.3333 10C33.75 10 38.3333 14.5833 38.3333 20V21.6667H27.3833C29 23.45 30 25.8 30 28.3333C30 33.75 25.4166 38.3333 20 38.3333ZM21.6666 34.7833C24.5 34.0167 26.6666 31.3833 26.6666 28.3333C26.6666 25.2833 24.5 22.65 21.6666 21.8833V34.7833ZM11.6666 26.6667C8.61663 26.6667 5.9833 24.5 5.21663 21.6667H18.1166C17.35 24.5 14.7166 26.6667 11.6666 26.6667ZM34.7833 18.3333C34.0166 15.5 31.3666 13.3333 28.3333 13.3333C25.3 13.3333 22.65 15.5 21.8833 18.3333H34.7833ZM13.3333 11.6667C13.3333 8.63334 15.5 5.98334 18.3333 5.21667V18.1167C15.5 17.35 13.3333 14.7 13.3333 11.6667Z" fill="black" fill-opacity="0.54"/>
</g>
</svg>
