<svg width="40" height="40" viewBox="0 0 40 40" fill="none" xmlns="http://www.w3.org/2000/svg">
<g id="power_settings_new_24px">
<path id="icon/action/power_settings_new_24px" fill-rule="evenodd" clip-rule="evenodd" d="M18.3333 5H21.6667V21.6667H18.3333V5ZM27.35 10.9833L29.7167 8.61667C32.95 11.3667 35 15.4333 35 20C35 28.2833 28.2833 35 20 35C11.7167 35 5 28.2833 5 20C5 15.4333 7.05 11.3667 10.2833 8.61667L12.6333 10.9667C10.0167 13.1 8.33333 16.35 8.33333 20C8.33333 26.45 13.55 31.6667 20 31.6667C26.45 31.6667 31.6667 26.45 31.6667 20C31.6667 16.35 29.9833 13.1 27.35 10.9833Z" fill="black" fill-opacity="0.54"/>
</g>
</svg>
