<svg width="53" height="34" viewBox="0 0 53 34" fill="none" xmlns="http://www.w3.org/2000/svg">
<g clip-path="url(#clip0)">
<path d="M12.3613 20.1296C13.1416 19.3203 13.1416 18.008 12.3613 17.1987C11.5809 16.3893 10.3157 16.3893 9.53538 17.1987C8.75503 18.008 8.75503 19.3203 9.53538 20.1296C10.3157 20.9389 11.5809 20.9389 12.3613 20.1296Z" fill="#4F4F4F"/>
<path d="M22.331 20.1294C23.1113 19.3201 23.1113 18.0079 22.331 17.1985C21.5506 16.3892 20.2855 16.3892 19.5051 17.1985C18.7248 18.0079 18.7248 19.3201 19.5051 20.1294C20.2855 20.9388 21.5506 20.9388 22.331 20.1294Z" fill="#4F4F4F"/>
<path d="M52.9081 10.0611C52.6719 8.52974 52.0386 6.31775 50.9739 4.75234C49.9403 3.22096 48.5327 2.45187 47.1645 1.83932C45.5322 1.10936 43.7899 1.25569 42.6202 1.42925C41.989 1.51684 41.3654 1.65508 40.7548 1.84272C39.327 2.29925 38.023 3.09847 36.9487 4.17552C36.9262 4.1975 36.9048 4.22079 36.8848 4.24528C36.8733 4.23677 36.8651 4.22486 36.8536 4.21465C34.7209 2.54545 32.7866 1.58919 30.8065 1.22847C28.5622 0.818398 26.3048 1.30674 24.6232 2.4893C22.0927 0.85943 19.1727 -0.00291005 16.194 -3.86288e-05C7.26441 -3.86288e-05 0 7.62622 0 17C0 26.3737 7.26441 34 16.194 34C18.7355 33.9956 21.2399 33.368 23.5029 32.1683C25.7659 30.9686 27.7232 29.2308 29.2151 27.0968L35.5132 32.8225C35.597 32.8989 35.6946 32.9573 35.8003 32.9943C35.906 33.0313 36.0178 33.0461 36.1291 33.0378C36.2404 33.0296 36.349 32.9985 36.4486 32.9464C36.5482 32.8942 36.6368 32.822 36.7092 32.734L37.2949 32.0262C37.371 31.9852 37.442 31.9349 37.5065 31.8764C41.3914 28.4257 44.4461 25.4327 47.9635 21.1211C48.8461 20.0406 52.014 15.4141 52.5669 13.83C52.9856 12.6237 53.103 11.3271 52.9081 10.0611ZM28.4424 10.8591C26.5066 10.8591 24.4509 10.7894 22.5216 10.2959C18.7237 9.32435 15.3114 6.57978 13.4083 3.02699C14.3251 2.82403 15.2599 2.72194 16.1973 2.72241C21.5882 2.72241 26.249 6.05061 28.4424 10.8591ZM10.0534 4.27421C9.65138 6.09979 8.89868 7.82259 7.84025 9.33966C6.5802 11.1205 4.93049 12.5656 3.02684 13.5561C3.49339 11.5793 4.36159 9.72861 5.57336 8.12789C6.78514 6.52717 8.31253 5.21331 10.0534 4.27421ZM16.194 31.2775C8.71138 31.2775 2.6249 24.8729 2.6249 17C2.6249 16.8996 2.6249 16.7992 2.6249 16.6988C5.5588 15.5621 8.10874 13.5615 9.96149 10.9425C10.9666 9.50362 11.7421 7.90648 12.2583 6.21225C14.6164 9.54866 18.0245 11.9255 21.8933 12.9316C23.9981 13.471 26.1358 13.5748 28.1389 13.5748C28.5556 13.5748 28.9592 13.5748 29.3661 13.5646C29.6296 14.687 29.7628 15.838 29.7631 16.9932C29.7631 24.8729 23.6766 31.2775 16.194 31.2775Z" fill="#4F4F4F"/>
</g>
<defs>
<clipPath id="clip0">
<rect width="53" height="34" fill="white"/>
</clipPath>
</defs>
</svg>
