<svg width="40" height="35" viewBox="0 0 40 35" fill="none" xmlns="http://www.w3.org/2000/svg">
<g id="gamepad_24px">
<path id="icon/hardware/gamepad_24px" fill-rule="evenodd" clip-rule="evenodd" d="M25 2.91667H15V10.9375L20 15.3125L25 10.9375V2.91667ZM21.6667 9.72709V5.83334H18.3334V9.72709L20 11.1854L21.6667 9.72709ZM28.8833 18.9583H33.3333V16.0417H28.8833L27.2167 17.5L28.8833 18.9583ZM11.1167 16.0417L12.7834 17.5L11.1167 18.9583H6.66671V16.0417H11.1167ZM21.6667 25.2729L20 23.8146L18.3334 25.2729V29.1667H21.6667V25.2729ZM27.5 13.125H36.6667V21.875H27.5L22.5 17.5L27.5 13.125ZM12.5 13.125H3.33337V21.875H12.5L17.5 17.5L12.5 13.125ZM15 24.0625L20 19.6875L25 24.0625V32.0833H15V24.0625Z" fill="black" fill-opacity="0.54"/>
</g>
</svg>
