<svg width="50" height="49" viewBox="0 0 50 49" fill="none" xmlns="http://www.w3.org/2000/svg">
<path d="M20.0756 2.78627C23.1309 1.05752 26.8691 1.05752 29.9244 2.78626L41.5751 9.37823C44.7116 11.1529 46.6506 14.4779 46.6506 18.0817V30.9183C46.6506 34.5221 44.7116 37.8471 41.5751 39.6218L29.9244 46.2137C26.8691 47.9425 23.1309 47.9425 20.0756 46.2137L8.42493 39.6218C5.28841 37.8471 3.34937 34.5221 3.34937 30.9183V18.0817C3.34937 14.4779 5.28841 11.1529 8.42493 9.37823L20.0756 2.78627Z" fill="white"/>
<path d="M37.6925 32.3923C37.5878 31.6599 37.0486 30.8675 36.2135 30.6955C36.1716 30.3749 36.0957 30.057 36.0145 29.752C35.5224 27.9301 34.5224 25.5896 32.5329 24.3542C33.347 24.0023 34.0931 23.5592 34.7135 23.0458C35.059 22.7591 35.3679 22.3082 35.6323 21.7035C35.6402 21.7035 35.6454 21.7035 35.6533 21.7035V21.6592C35.7344 21.4689 35.813 21.2656 35.8863 21.0441L35.6349 20.9607V20.9216C35.6323 20.9216 35.6323 20.9216 35.6297 20.9216C35.5014 20.9216 35.1821 20.8043 34.8679 20.6453C35.6035 19.9181 36.0852 18.6201 36.148 18.4455L35.7789 18.3152H36.1716C36.1716 17.7366 35.6114 17.6011 35.2763 17.5203C35.1376 17.4864 34.9936 17.4525 34.9151 17.4056C34.6637 17.257 34.4281 17.1163 34.2318 16.939C33.9988 16.7279 33.813 16.4516 33.6611 16.2092C33.5433 16.019 33.4334 15.8235 33.3287 15.6254C33.881 15.0181 34.258 14.304 34.6192 13.6107C34.7213 13.4152 34.8365 13.1963 34.8889 12.9382C34.9334 12.7219 34.9255 12.516 34.9203 12.3336C34.9046 11.8383 34.6768 10.9339 34.2239 10.4778L34.1821 10.5195C33.9569 10.4048 33.6768 10.3918 33.3915 10.4987C33.3863 10.5013 33.381 10.5039 33.3758 10.5039C33.3234 10.5195 33.2685 10.5378 33.2161 10.556C33.0329 10.6186 32.7685 10.715 32.4386 10.8323L32.1376 10.9391C31.8575 11.0382 31.5747 11.1685 31.2946 11.3275C31.0355 11.4734 30.3051 11.794 29.1088 11.5986C28.9883 11.5803 28.8993 11.5777 28.8287 11.5751C28.7082 11.5725 28.6297 11.5699 28.3496 11.4396L28.3208 11.4265C27.8156 11.1946 27.1847 10.9079 26.2972 10.9053C26.2946 10.9053 26.2946 10.9053 26.292 10.9053C24.9386 10.9053 23.5381 11.2337 22.3313 11.5412L22.2056 11.5751C22.0669 11.6142 21.9334 11.6507 21.8287 11.6429C21.6821 11.635 21.5171 11.5621 21.3418 11.4813L21.3156 11.4708C20.5407 11.1216 19.7135 10.9391 18.915 10.7645C18.7397 10.7254 18.5643 10.6863 18.3889 10.6446L18.3863 10.6368C18.381 10.6394 18.3758 10.6394 18.3705 10.642C18.3548 10.6394 18.3391 10.6342 18.326 10.6316L18.3208 10.6576C17.3653 10.9496 17.3051 11.2675 17.2815 11.39C17.2239 11.7002 17.3051 11.9895 17.3705 12.2215L17.6847 13.3318C17.7737 13.6446 17.8627 13.9678 18.0067 14.2831C18.1847 14.6741 18.6297 15.0494 19.1664 15.4534C18.3182 16.5403 17.0014 17.6636 16.5276 18.052H16.2685C16.2685 18.1927 16.2789 19.4438 16.6821 19.9729C16.7972 20.124 16.9334 20.2465 17.0486 20.3482C17.148 20.4342 17.2475 20.5176 17.3496 20.5984C17.1114 20.7235 16.8575 20.8199 16.5957 20.8799L16.7711 21.6409C16.792 21.6357 16.8103 21.6305 16.8313 21.6253C17.0695 22.3421 17.6166 22.8712 18.0119 23.2048C18.6114 23.713 19.2894 24.1353 20.0145 24.4584L19.7606 24.6644C19.6271 24.7712 19.4753 24.8937 19.3444 25.0397C19.08 25.3316 18.9046 25.7121 18.8156 26.1422C18.703 26.137 18.5931 26.1317 18.4805 26.1265C18.2527 26.1213 18.0145 26.1239 17.7763 26.1344L17.7344 26.077C17.7109 26.0953 17.6821 26.1187 17.6585 26.1396C17.3444 26.1604 17.0224 26.2021 16.7056 26.2907L16.7161 26.3272C15.9883 26.5201 15.1899 26.7521 14.5224 27.2395C14.2527 27.4375 14.0171 27.6643 13.8051 27.8832C13.0459 28.6573 12.1507 30.3671 12.0826 31.5817C11.991 33.1429 12.0721 33.4009 12.148 33.6512C12.1559 33.6746 12.1637 33.6981 12.169 33.7241C12.1873 33.7919 12.2004 33.8571 12.2135 33.9248C12.2397 34.0525 12.2685 34.1959 12.3208 34.3366C12.4177 34.5999 12.5616 34.8345 12.6899 35.043L12.7135 35.0821C13.1978 35.8666 13.7475 36.7554 14.669 37.1698C14.9412 37.2923 15.1716 37.407 15.3863 37.5138C15.8496 37.7458 16.2868 37.9647 16.9386 38.155C17.1664 38.2228 17.3941 38.2723 17.6219 38.314C17.6428 38.3374 17.6637 38.3609 17.6847 38.3843L17.7397 38.3322C18.402 38.4365 19.0669 38.4495 19.7213 38.4495C19.8156 38.4495 19.9098 38.4495 20.0041 38.4495H20.3758C20.3915 38.4573 20.4072 38.4651 20.4203 38.473L20.4308 38.4495L22.9857 38.4417L22.9883 38.4443L22.991 38.4417L25.3313 38.4365C25.347 38.4443 25.3627 38.4547 25.3758 38.4625L25.3915 38.4365L28.1821 38.4287C28.2737 38.4287 28.3679 38.4287 28.4622 38.4287C28.4674 38.4339 28.4753 38.4391 28.4831 38.4417L28.4936 38.4287C29.5695 38.4234 30.7161 38.4052 31.8418 38.2097C31.9177 38.2254 31.991 38.2384 32.0564 38.2462L32.0669 38.1654C32.7266 38.0377 33.3758 37.8448 33.9962 37.5581C35.3496 36.9274 36.4857 35.8588 37.1978 34.5504C37.6245 33.758 37.7894 33.0517 37.6925 32.3923ZM34.114 12.7845C34.0826 12.933 34.0014 13.0894 33.9177 13.251C33.6297 13.8009 33.3313 14.3587 32.9517 14.8435C32.7423 14.3431 32.5747 13.8244 32.4517 13.2901L32.4674 13.2849C32.4465 13.2041 32.4936 13.0686 32.6114 12.8835C32.9386 12.3622 33.3836 11.9061 33.8967 11.5647C33.9098 11.5569 33.9255 11.5464 33.9438 11.5334C34.0486 11.8097 34.1192 12.125 34.1271 12.357C34.1349 12.5082 34.1402 12.6594 34.114 12.7845ZM26.292 11.6924C27.0093 11.6924 27.5302 11.9322 27.9883 12.1407L28.0171 12.1537C28.1873 12.2319 28.3156 12.2788 28.4255 12.3075L27.4962 13.1989C27.2815 13.4048 27.0119 13.6628 26.8732 14.0173C26.7711 14.2753 26.758 14.5412 26.7475 14.7523C26.6873 15.9121 26.6742 17.0876 26.7109 18.2474L26.7135 18.3621C26.724 18.6827 26.7318 18.985 26.7135 19.2848C26.7056 19.4125 26.6899 19.5376 26.6716 19.6627C26.2972 19.608 25.9177 19.5767 25.5381 19.5715C25.5329 19.4803 25.5302 19.3916 25.5302 19.3134C25.525 18.6592 25.5957 17.9842 25.6611 17.33C25.7554 16.4125 25.8522 15.4664 25.758 14.5177C25.7397 14.3405 25.7135 14.1372 25.6061 13.9417C25.4936 13.7358 25.326 13.5976 25.1899 13.4856C24.8548 13.2119 24.4596 12.8522 24.0747 12.503C23.9072 12.3518 23.7397 12.198 23.5721 12.0495C24.4543 11.8514 25.3915 11.6924 26.2868 11.6924C26.2894 11.6924 26.2894 11.6924 26.292 11.6924ZM25.8627 20.8616C25.7946 20.6922 25.7318 20.528 25.6768 20.3638C25.9465 20.3742 26.2161 20.3977 26.4831 20.4342C26.3758 20.7548 26.237 21.0649 26.0669 21.3569C25.9962 21.1926 25.9308 21.0258 25.8627 20.8616ZM18.7187 13.9625C18.6009 13.7019 18.5171 13.4074 18.436 13.1233L18.1219 12.013C18.0826 11.8774 18.0433 11.7367 18.0433 11.6168C18.1088 11.5777 18.2239 11.5256 18.3496 11.4787C19.1035 12.503 19.8758 13.6837 19.9281 13.9886C19.9124 14.1372 19.8548 14.2909 19.7763 14.4734C19.7292 14.5829 19.6716 14.6949 19.6061 14.8096C19.258 14.5464 18.826 14.2023 18.7187 13.9625ZM17.5721 21.3673C17.915 21.2057 18.2344 20.9946 18.5145 20.7391L18.1219 20.3091L18.1716 20.2439C17.9648 20.0928 17.7606 19.9312 17.5669 19.7617C17.4805 19.6862 17.381 19.5975 17.3077 19.5037C17.2056 19.3682 17.1245 18.9981 17.0852 18.6071C17.813 18.0076 19.8863 16.2145 20.4988 14.7809C20.5957 14.5568 20.6873 14.3118 20.7109 14.0407C20.7475 13.6367 20.1533 12.6672 19.4779 11.7028C20.0014 11.8305 20.5067 11.9739 20.9883 12.1902L21.0145 12.2006C21.237 12.2997 21.4883 12.4144 21.7842 12.43C22.0171 12.443 22.2266 12.3857 22.4124 12.3336L22.525 12.3049C22.5643 12.2945 22.6035 12.284 22.6428 12.2762C22.9281 12.5212 23.2423 12.8053 23.5486 13.0842C23.9386 13.4387 24.3418 13.8062 24.6925 14.0929C24.7842 14.1684 24.8784 14.244 24.9177 14.317C24.9543 14.3848 24.9674 14.4969 24.9779 14.5985C25.0459 15.2892 25.0041 15.9773 24.936 16.6914C24.936 16.6914 24.936 16.6914 24.9334 16.6888C24.5616 16.3031 23.9779 16.1545 23.3679 16.29C22.9046 16.3943 22.5093 16.6367 22.1742 16.853C21.6428 17.1997 21.1192 17.5906 20.6192 18.0103C20.2815 18.2944 19.936 18.6097 19.6821 19.0033C19.3758 19.475 19.2554 19.9963 19.3365 20.4707C19.4753 21.2682 20.2187 21.912 21.1035 22.0006C21.1768 22.0084 21.2527 22.0111 21.3287 22.0111C21.9779 22.0111 22.6611 21.7374 23.2318 21.2422C23.8993 20.6636 24.347 19.8947 24.7449 19.144C24.7449 19.2014 24.7423 19.2587 24.7423 19.3161C24.7449 19.5584 24.7554 19.8764 24.8208 20.1944C24.8915 20.5332 25.0145 20.8434 25.1323 21.1431C25.2527 21.4455 25.381 21.7661 25.5512 22.0762C25.3077 22.3603 25.0329 22.6157 24.7318 22.8295L25.1873 23.4654C25.4883 23.2517 25.7632 23.0067 26.0145 22.7382C26.0564 22.7851 26.0983 22.8295 26.1428 22.8738C26.3993 23.1162 26.6978 23.2986 26.9622 23.4576L27.3705 22.7904C27.1297 22.6444 26.8784 22.4932 26.6847 22.3082C26.6219 22.2482 26.5669 22.1857 26.5119 22.1179C27.08 21.2995 27.4281 20.3299 27.491 19.3265C27.5067 19.0945 27.5041 18.8651 27.4988 18.6384C27.7554 19.217 28.0669 19.7591 28.4281 20.2517L28.7397 20.674C28.8287 20.7965 28.9229 20.9216 29.0355 21.0415C29.1664 21.1796 29.3077 21.2917 29.4465 21.4012C29.8915 21.7504 30.4177 22.1153 31.1166 22.1153C31.1716 22.1153 31.2266 22.1127 31.2842 22.1075C31.9569 22.0528 32.5564 21.6879 32.8915 21.1275C33.08 20.8147 33.1794 20.4811 33.1821 20.1605C33.1873 19.3682 32.6192 18.7426 32.1219 18.2891C31.5014 17.7209 30.8339 17.1945 30.1349 16.7253C28.7135 15.7714 27.8784 16.1519 27.47 16.5298C27.4753 15.946 27.4936 15.3622 27.5224 14.7836C27.5302 14.6194 27.5407 14.4343 27.5957 14.2936C27.6716 14.1007 27.8548 13.9261 28.0302 13.7566L29.4203 12.4222C29.5643 12.4326 29.7004 12.4404 29.8313 12.4404C30.737 12.4404 31.3496 12.185 31.669 12.0051C31.9098 11.8696 32.1507 11.7575 32.3889 11.6741L32.6402 11.5855C32.3758 11.854 32.1376 12.1485 31.936 12.4665C31.8051 12.6724 31.6507 12.9695 31.6716 13.3005L31.6402 13.3083C31.8915 14.4812 32.3418 15.5967 32.9753 16.6158C33.1559 16.9051 33.3784 17.2388 33.6873 17.515C33.9412 17.7444 34.224 17.9112 34.4988 18.0728C34.6794 18.1797 34.8889 18.2292 35.0747 18.2735C35.148 18.2917 35.2554 18.3178 35.3313 18.3439C35.059 19.0294 34.5198 20.0484 34.0145 20.3065L34.0616 20.3977L33.6533 20.5828C33.7292 20.7496 33.8391 20.8981 33.9674 21.0128C34.0643 21.0988 34.1637 21.1562 34.2475 21.2031C34.3522 21.263 34.5852 21.3881 34.847 21.4976C34.648 21.925 34.4255 22.2508 34.2004 22.4359C32.8993 23.5123 30.9805 24.2578 29.0669 24.4298C28.0433 24.521 26.9831 24.5001 25.9596 24.4819L24.2763 24.448C23.6454 24.435 22.9936 24.422 22.3705 24.3333C20.9648 24.1326 19.5931 23.5175 18.5119 22.6027C18.0041 22.1753 17.703 21.7791 17.5721 21.3673ZM22.1585 18.078C22.1611 18.0963 22.169 18.1145 22.1716 18.1328C22.1716 18.151 22.169 18.1692 22.169 18.1875C22.2056 18.6254 22.6402 19.0684 22.9255 19.2066C23.0486 19.2665 23.1664 19.2952 23.2815 19.2952C23.3444 19.2952 23.4072 19.2848 23.4674 19.2665C23.4779 19.2639 23.4883 19.2561 23.4988 19.2535C23.6349 19.2222 23.7449 19.1519 23.8208 19.0658C24.0119 18.8521 24.0564 18.4612 23.7632 18.0676C23.6192 17.8382 23.3967 17.6297 23.1664 17.5307C22.9779 17.4499 22.792 17.4421 22.6245 17.4994C22.8967 17.3222 23.2135 17.1293 23.5407 17.0563C23.8025 16.9964 24.1559 17.0146 24.3653 17.2309C24.6742 17.5515 24.5721 17.8226 24.2266 18.4559C24.1899 18.5237 24.1533 18.5941 24.1166 18.6619C23.737 19.3864 23.3182 20.1371 22.7161 20.6609C22.2423 21.0728 21.6821 21.2813 21.1821 21.2291C20.6507 21.177 20.1899 20.7939 20.1114 20.343C20.0616 20.0641 20.1454 19.7383 20.3444 19.4307C20.5302 19.1414 20.792 18.8938 21.1271 18.6123C21.4753 18.3204 21.8365 18.0415 22.203 17.7861C22.1611 17.8695 22.1454 17.9659 22.1585 18.078ZM28.9124 19.1597C29.0329 19.2431 29.169 19.2874 29.313 19.2874C29.4177 19.2874 29.525 19.2639 29.6323 19.2196C29.9857 19.0684 30.3287 18.6514 30.381 18.3048C30.4046 18.1432 30.3836 17.9633 30.3077 17.8122C30.7554 18.1432 31.1873 18.4976 31.5957 18.873C31.9962 19.2405 32.4046 19.6809 32.402 20.1657C32.402 20.3456 32.3391 20.5437 32.2239 20.7365C32.0224 21.0728 31.6402 21.3021 31.2266 21.336C30.7763 21.3725 30.4124 21.164 29.9386 20.7939C29.8182 20.7 29.7056 20.6088 29.6114 20.5124C29.5302 20.429 29.4569 20.3273 29.3784 20.2205L29.0669 19.7982C28.7135 19.3187 28.4098 18.787 28.1664 18.2136C28.0747 17.9972 27.7946 17.3404 27.9674 17.1554C28.1166 16.9964 28.3025 16.9156 28.5302 16.9156C28.847 16.9156 29.2397 17.072 29.703 17.3821C29.7397 17.4056 29.7737 17.4316 29.8103 17.4577C29.6768 17.4447 29.5355 17.4707 29.3889 17.5411C29.1009 17.6792 28.6664 18.1223 28.6323 18.5602C28.6114 18.8026 28.7135 19.0215 28.9124 19.1597ZM19.9281 25.5688C20.0198 25.4671 20.1349 25.3759 20.2554 25.2769L20.7423 24.8859C20.8103 24.8729 20.9753 24.8859 21.0774 24.9224L21.0983 24.8624C21.4831 24.9771 21.8758 25.0631 22.2711 25.1179C22.9438 25.2143 23.6192 25.2273 24.2737 25.2404L25.9596 25.2742C26.3993 25.2821 26.8444 25.2925 27.2946 25.2925C27.9124 25.2925 28.5329 25.2769 29.1507 25.2195C30.0067 25.1413 30.8627 24.9563 31.6768 24.6826L31.6428 24.7556C33.737 25.7434 34.7658 28.1282 35.258 29.9553C35.4334 30.6069 35.5302 31.1438 35.4255 31.6521C35.313 32.202 34.9805 32.6216 34.7187 32.8771C34.0852 33.4974 33.1742 33.8362 32.2868 33.7815C31.7946 33.7502 31.3287 33.6121 30.8836 33.3957L30.9622 27.4245L30.1768 27.4141L30.1061 32.9318C29.4857 32.4939 28.8967 31.9283 28.313 31.3263C28.2972 30.474 28.3025 29.4862 28.3077 28.5296C28.3103 28.0631 28.313 27.607 28.313 27.1821H27.5276C27.5276 27.607 27.525 28.0605 27.5224 28.527C27.5198 29.189 27.5171 29.8641 27.5198 30.5053C26.2397 29.189 24.7868 27.8233 22.9648 27.0257C21.9805 26.5957 20.8732 26.3246 19.6088 26.2073C19.669 25.9493 19.7789 25.7304 19.9281 25.5688ZM25.025 34.7641C25.1637 35.4522 25.5564 36.1376 26.1559 36.7475C26.4203 37.016 26.8601 37.3418 27.3077 37.6546L25.5486 37.6598C24.7475 37.1281 24.0486 36.0568 23.7161 35.2306C23.3941 34.4279 23.0329 33.3671 23.114 32.2906C23.1402 31.9362 23.2109 31.5869 23.2894 31.2142C23.4622 30.3801 23.6768 29.3454 24.3208 28.699C24.9543 29.1499 25.5433 29.6608 26.0957 30.1925C25.7213 30.5965 25.4281 31.1099 25.2397 31.7016C25.0564 32.275 24.9648 32.9188 24.9517 33.7293C24.9465 34.0369 24.9517 34.4018 25.025 34.7641ZM20.4569 33.4192C20.4438 32.9943 20.436 32.7076 20.4726 32.3375C20.5904 31.0995 20.7135 29.8198 21.2606 28.7095C21.4177 28.3889 21.792 27.9041 22.114 27.5262C22.2946 27.5913 22.4726 27.6591 22.6454 27.7347C22.9962 27.8884 23.3339 28.0683 23.6611 28.2638C22.936 29.0665 22.703 30.1638 22.5198 31.0578C22.4412 31.4357 22.3627 31.8267 22.3313 32.2307C22.2397 33.4661 22.6349 34.6364 22.9883 35.5173C23.2685 36.2132 23.7554 37.0238 24.3601 37.6598L23.237 37.6624C21.9962 36.7449 20.4988 34.665 20.4569 33.4192ZM15.737 36.8231C15.5119 36.7111 15.2737 36.5912 14.991 36.4634C14.2894 36.1481 13.8287 35.4 13.381 34.6781L13.3575 34.639C13.237 34.4461 13.1271 34.2637 13.0564 34.076C13.025 33.9874 13.0041 33.8857 12.9805 33.7763C12.9648 33.6929 12.9465 33.6121 12.9255 33.5313C12.915 33.4948 12.9072 33.4635 12.8967 33.4296C12.8444 33.2628 12.7815 33.0543 12.8653 31.6312C12.9177 30.7216 13.648 29.1682 14.3679 28.4332C14.5564 28.2403 14.7632 28.0396 14.9883 27.8754C15.4753 27.5209 16.0695 27.3229 16.669 27.1561C16.0145 27.9458 15.3863 28.9258 15.2056 29.5956C15.1245 29.8954 15.0721 30.2003 15.0302 30.487C14.915 31.2403 14.847 31.9309 14.8182 32.5982C14.7999 33.0517 14.7972 33.5391 14.9124 34.0239C14.991 34.3497 15.1166 34.6494 15.2292 34.897C15.5904 35.692 16.1559 36.539 16.7292 37.274C16.3627 37.1359 16.0669 36.9873 15.737 36.8231ZM18.0119 37.5868C17.3025 36.7866 16.415 35.6112 15.9438 34.5712C15.847 34.3549 15.737 34.0995 15.6742 33.8362C15.58 33.4453 15.5826 33.023 15.6009 32.6269C15.6271 31.9883 15.6952 31.3263 15.8051 30.5991C15.8444 30.3358 15.8915 30.057 15.9622 29.7963C16.1716 29.0274 17.2239 27.5939 17.9622 26.9137C18.1297 26.9084 18.2972 26.9084 18.4622 26.9137C18.6742 26.9189 18.881 26.9267 19.0826 26.9397C18.1925 27.9901 17.559 29.2333 17.2423 30.5782C16.7292 32.752 17.1323 35.056 18.3234 36.7449C18.5224 37.0264 18.7213 37.2636 18.9308 37.4695C18.9936 37.5321 19.0747 37.5998 19.1585 37.6676C18.7763 37.6598 18.3915 37.6389 18.0119 37.5868ZM20.5669 37.6728C20.2082 37.4747 19.7135 37.1385 19.4805 36.9117C19.3051 36.7397 19.1349 36.539 18.9648 36.2966C17.902 34.7875 17.5407 32.7181 18.0041 30.7581C18.3365 29.3558 19.0433 28.0709 20.0512 27.0388C20.4883 27.0987 20.9046 27.1769 21.2999 27.2786C21.0486 27.5913 20.7239 28.0214 20.5538 28.368C19.9438 29.6061 19.8077 31.0187 19.6873 32.2672C19.648 32.6842 19.6533 33.0048 19.669 33.4505C19.7135 34.7954 20.915 36.5547 22.0512 37.6728H20.5669ZM28.7004 37.6493C28.6507 37.6155 28.6035 37.5842 28.5486 37.5477C27.9674 37.1593 27.0878 36.5729 26.7161 36.1976C26.2213 35.6972 25.902 35.1472 25.7946 34.6077C25.737 34.3184 25.7318 34.0056 25.737 33.7398C25.7501 33.0074 25.8287 32.434 25.9883 31.9362C26.1402 31.4644 26.3679 31.0578 26.6559 30.7398C26.9596 31.0474 27.2554 31.3523 27.5407 31.6521C28.0014 32.1342 28.4648 32.5982 28.9438 33.01C28.6611 33.3931 28.3863 33.8049 28.203 34.2689C27.9543 34.9022 27.9255 35.546 28.1219 36.0829C28.3418 36.685 28.847 37.1906 29.5433 37.5034C29.6245 37.5399 29.724 37.5816 29.8339 37.6233C29.4491 37.6415 29.0721 37.6467 28.7004 37.6493ZM36.5041 34.1829C35.8732 35.3453 34.8653 36.294 33.6611 36.8544C33.0852 37.1229 32.47 37.3001 31.8418 37.4174C31.2187 37.2792 30.2763 36.9795 29.8653 36.7945C29.3705 36.5703 29.0041 36.2158 28.8575 35.8197C28.7266 35.46 28.7527 35.0117 28.9334 34.5556C29.08 34.1829 29.3077 33.8414 29.5564 33.5C30.3653 34.089 31.2344 34.4982 32.237 34.5608C32.3156 34.566 32.3941 34.5686 32.4726 34.5686C33.5041 34.5686 34.5329 34.1542 35.2685 33.4348C35.7554 32.9579 36.0747 32.3949 36.1952 31.8058C36.2135 31.712 36.2266 31.6182 36.237 31.5243C36.6114 31.6938 36.8627 32.1186 36.9177 32.5044C36.9857 32.9917 36.8522 33.5417 36.5041 34.1829Z" fill="#6E2AB1"/>
</svg>
